<?xml version="1.0" encoding="UTF-8"?>
<svg version="1.1" xmlns="http://www.w3.org/2000/svg" width="1527" height="812">
<path d="M0 0 C0.74795837 0.00182281 1.49591675 0.00364563 2.26654053 0.00552368 C13.17483186 0.050274 23.60269225 0.43407449 34.1875 3.3125 C34.8582959 3.49474121 35.5290918 3.67698242 36.22021484 3.86474609 C55.07392654 9.10213131 72.78408477 17.17368919 88.1875 29.3125 C89.11304688 30.034375 90.03859375 30.75625 90.9921875 31.5 C121.74285721 56.03239024 140.06941052 91.54488191 145.1875 130.3125 C145.68386702 134.97932327 146.00627575 139.62332242 146.1875 144.3125 C146.249375 145.69695312 146.249375 145.69695312 146.3125 147.109375 C147.24584015 188.40967676 131.79037103 227.69987114 103.3293457 257.50512695 C84.80857346 276.45072277 61.325429 290.28767048 35.1875 295.3125 C34.87748047 294.78744873 34.56746094 294.26239746 34.24804688 293.72143555 C33.29075155 292.10033883 32.33329582 290.47933683 31.37573242 288.85839844 C30.23735247 286.9309722 29.09950601 285.00323079 27.9621582 283.07519531 C24.94875267 277.97041752 21.92733272 272.87073153 18.88314819 267.78425598 C17.40646769 265.31647118 15.93292113 262.84682127 14.45947266 260.37710571 C13.73626996 259.1669989 13.01149564 257.95782996 12.28515625 256.74960327 C11.26300035 255.04896448 10.24660202 253.34486915 9.23046875 251.640625 C8.64289795 250.6599707 8.05532715 249.67931641 7.44995117 248.66894531 C6.1875 246.3125 6.1875 246.3125 6.1875 244.3125 C7.27546875 244.15394531 8.3634375 243.99539063 9.484375 243.83203125 C18.64988145 242.41277503 26.84075647 240.53782245 35.1875 236.3125 C36.17105469 235.82007813 37.15460938 235.32765625 38.16796875 234.8203125 C59.44631813 223.31403819 72.86628834 203.29034905 79.9609375 180.63671875 C88.25063621 152.55383936 84.58124492 123.04938157 70.76489258 97.38427734 C60.06571758 78.34645888 42.97987715 64.86169946 22.1875 58.3125 C18.86627815 57.39803347 15.60066903 56.76966724 12.1875 56.3125 C11.22714844 56.1784375 10.26679687 56.044375 9.27734375 55.90625 C-11.56742771 53.6332142 -32.31956348 59.25950076 -48.9375 72.125 C-50.57849853 73.5019893 -52.20391371 74.89778242 -53.8125 76.3125 C-54.56273437 76.96734375 -55.31296875 77.6221875 -56.0859375 78.296875 C-73.48789447 94.53870151 -83.24918641 118.58422125 -84.15625 142.1484375 C-84.41095352 154.46899906 -84.29376745 166.41316774 -80.8125 178.3125 C-80.5340625 179.32441406 -80.255625 180.33632813 -79.96875 181.37890625 C-73.23679449 203.6349833 -58.9705102 222.81387752 -38.69189453 234.31494141 C-26.09995325 240.99858288 -14.0610386 243.12512178 0.1875 244.3125 C0.1875 262.4625 0.1875 280.6125 0.1875 299.3125 C-39.58834343 299.3125 -74.43373164 285.64991041 -102.9375 257.625 C-132.1972432 228.11194072 -146.28017739 188.36514332 -146.11303711 147.17700195 C-145.37064951 106.78512393 -130.17728569 71.67505443 -102.8125 42.3125 C-102.12542969 41.5596875 -101.43835937 40.806875 -100.73046875 40.03125 C-84.95763784 23.40978811 -62.46091451 11.67298019 -40.75 5 C-39.58283447 4.63624268 -39.58283447 4.63624268 -38.39208984 4.26513672 C-25.77209149 0.57789788 -13.0478963 -0.06617684 0 0 Z " fill="#1F1D1D" transform="translate(1150.8125,389.6875)"/>
<path d="M0 0 C2.63223267 -0.36076355 2.63223267 -0.36076355 6.01025391 -0.34057617 C7.27141022 -0.34034958 8.53256653 -0.34012299 9.8319397 -0.33988953 C11.21348421 -0.32456844 12.59502513 -0.30892044 13.9765625 -0.29296875 C15.38617503 -0.28737433 16.79579338 -0.2831035 18.20541382 -0.28010559 C21.91768464 -0.26864454 25.629604 -0.23916704 29.34173584 -0.20599365 C33.12881719 -0.1753196 36.91595526 -0.16160599 40.703125 -0.14648438 C48.135577 -0.11429811 55.56773928 -0.0630871 63 0 C62.28873153 4.68016853 61.11009044 8.54660487 59.25390625 12.9140625 C58.97173248 13.5839621 58.68955872 14.25386169 58.39883423 14.94406128 C57.78363108 16.40307366 57.16557921 17.8608874 56.54501343 19.31762695 C54.82610862 23.35437039 53.12978297 27.40062059 51.4296875 31.4453125 C51.06906723 32.30163269 50.70844696 33.15795288 50.3368988 34.04022217 C46.21806083 43.8319046 42.20103284 53.66479765 38.1875 63.5 C37.42868612 65.35785188 36.6698153 67.2156805 35.91088867 69.07348633 C34.37580349 72.83182789 32.84128533 76.59040032 31.30712891 80.34912109 C27.50135709 89.67226586 23.68810174 98.99235129 19.875 108.3125 C19.31868393 109.6722847 19.31868393 109.6722847 18.75112915 111.05953979 C16.53452594 116.47727855 14.31749838 121.89484347 12.10009766 127.31225586 C11.36404318 129.11057447 10.62804095 130.90891447 9.89208984 132.70727539 C7.72680048 137.99824162 5.56046365 143.28877677 3.39263916 148.57870483 C2.73163754 150.19203959 2.07093516 151.805497 1.4105835 153.4190979 C1.10219543 154.17258514 0.79380737 154.92607239 0.47607422 155.70239258 C0.21059784 156.35129959 -0.05487854 157.0002066 -0.32839966 157.66877747 C-4.49201188 167.80708071 -8.74608764 177.89695815 -13 188 C16.37 188 45.74 188 76 188 C70.72 175.46 65.44 162.92 60 150 C56.79727588 142.23488226 53.60172995 134.46816406 50.4375 126.6875 C49.33737883 123.98844799 48.23664335 121.28964702 47.13589478 118.59085083 C46.4311798 116.86283085 45.72672191 115.13470599 45.02255249 113.40646362 C41.703171 105.26212012 38.35522326 97.12963232 35 89 C42.68959843 81.27995723 50.76152427 74.12674824 59.2421875 67.2890625 C62.12064017 64.89986524 64.87494749 62.41056373 67.625 59.875 C80.55761719 48 80.55761719 48 84 48 C84.84626279 50.07334384 85.69252549 52.14668772 86.53878784 54.22003174 C87.30955872 56.10841936 88.08033108 57.99680638 88.85110474 59.88519287 C91.06369355 65.30601644 93.27625417 70.72685153 95.48876953 76.14770508 C99.99457327 87.18723385 104.50067218 98.22664184 109.0078125 109.265625 C118.14447269 131.64424122 127.27264699 154.02629017 136.3899231 176.41281128 C141.7614923 189.60210401 147.13728733 202.7896466 152.52310181 215.97312927 C156.61431253 225.98773652 160.70133281 236.00404796 164.78546143 246.02154541 C166.02949973 249.0723432 167.27426482 252.12284386 168.51904297 255.17333984 C170.55151201 260.1555023 172.58008268 265.13923602 174.60580444 270.12414551 C175.36291119 271.98572384 176.12121425 273.84681613 176.88076782 275.70739746 C177.91857144 278.25023217 178.95204388 280.79478343 179.984375 283.33984375 C180.29265732 284.09246994 180.60093964 284.84509613 180.91856384 285.62052917 C183 290.77162617 183 290.77162617 183 293 C162.21 293 141.42 293 120 293 C111.72017177 276.44034354 105.09123924 259.10240053 98 242 C54.11 241.67 10.22 241.34 -35 241 C-35.99 243.97 -36.98 246.94 -38 250 C-38.63352363 251.63057833 -39.28762014 253.25358957 -39.97705078 254.86132812 C-40.33397003 255.69829224 -40.69088928 256.53525635 -41.05862427 257.39758301 C-41.43373138 258.26669312 -41.8088385 259.13580322 -42.1953125 260.03125 C-42.58822479 260.94837769 -42.98113708 261.86550537 -43.38595581 262.8104248 C-44.20950227 264.73048375 -45.03481219 266.64978721 -45.86181641 268.56835938 C-47.13256732 271.5175625 -48.39674788 274.46952002 -49.66015625 277.421875 C-50.46315763 279.29183163 -51.26652958 281.16162918 -52.0703125 283.03125 C-52.44946808 283.91655396 -52.82862366 284.80185791 -53.2192688 285.71398926 C-53.56988373 286.52573608 -53.92049866 287.33748291 -54.28173828 288.17382812 C-54.59023712 288.89058716 -54.89873596 289.60734619 -55.21658325 290.3458252 C-56 292 -56 292 -57 293 C-58.96369153 293.0940067 -60.93079199 293.11743381 -62.89672852 293.11352539 C-64.15796036 293.11344986 -65.4191922 293.11337433 -66.71864319 293.11329651 C-68.10539794 293.1081891 -69.49215229 293.10297309 -70.87890625 293.09765625 C-72.28995209 293.09579201 -73.70099857 293.09436814 -75.11204529 293.09336853 C-78.83240535 293.08954379 -82.5527266 293.0797139 -86.27307129 293.06866455 C-90.06680781 293.05844948 -93.86055058 293.05387071 -97.65429688 293.04882812 C-105.10288231 293.03809158 -112.55143572 293.0210157 -120 293 C-118.32256022 287.14926445 -116.50984203 281.48219867 -114.12890625 275.87109375 C-113.71795715 274.89490082 -113.71795715 274.89490082 -113.29870605 273.89898682 C-112.70385135 272.48673381 -112.10683205 271.07539093 -111.50784302 269.66488647 C-109.82656417 265.70351192 -108.16407101 261.73425176 -106.5 257.765625 C-105.96222679 256.4844001 -105.96222679 256.4844001 -105.41358948 255.17729187 C-100.88857315 244.37797175 -96.47837052 233.53178614 -92.0625 222.6875 C-90.77577095 219.52948664 -89.48886414 216.37154576 -88.20195007 213.21360779 C-87.35382015 211.13239118 -86.50576669 209.0511434 -85.65779114 206.96986389 C-81.70305284 197.26560733 -77.7299758 187.56892891 -73.75 177.875 C-73.42718048 177.08862152 -73.10436096 176.30224304 -72.77175903 175.49203491 C-71.15995884 171.56586788 -69.54784622 167.63982926 -67.93554688 163.71386719 C-64.95644122 156.45922817 -61.98039074 149.2033356 -59.00402832 141.9475708 C-57.33613628 137.8816657 -55.66805903 133.81583659 -54 129.75 C-53.33333244 128.12500037 -52.66666577 126.50000037 -52 124.875 C-32 76.125 -32 76.125 -31.00021362 73.68804932 C-30.33280809 72.06122925 -29.6654294 70.43439818 -28.99807739 68.80755615 C-27.34293393 64.77281298 -25.68734148 60.73825526 -24.03076172 56.70410156 C-20.89264967 49.06068687 -17.75949756 41.41532973 -14.64093018 33.76391602 C-13.16088224 30.13335404 -11.67843846 26.5037726 -10.19580078 22.87426758 C-9.4869154 21.13696503 -8.77921573 19.39917815 -8.07275391 17.66088867 C-7.09573302 15.25708119 -6.1147104 12.85494361 -5.1328125 10.453125 C-4.843992 9.73944763 -4.55517151 9.02577026 -4.25759888 8.29046631 C-3.03035288 5.29840853 -1.80144472 2.70216709 0 0 Z " fill="#1F1D1D" transform="translate(400,393)"/>
<path d="M0 0 C2.31469533 0.00314595 4.6280897 -0.02033866 6.94262695 -0.0456543 C44.39192239 -0.20499608 79.09974155 15.10420614 105.62548828 41.1171875 C109.53231175 44.99632434 113.39174573 48.85692479 116.64770508 53.31567383 C116.64770508 53.97567383 116.64770508 54.63567383 116.64770508 55.31567383 C114.36468991 56.88582288 112.08406137 58.33143854 109.71020508 59.75317383 C108.23415791 60.65553398 106.75892351 61.55922472 105.28442383 62.46411133 C104.51791504 62.93300781 103.75140625 63.4019043 102.96166992 63.88500977 C99.27976978 66.16143252 95.65144907 68.51828259 92.02270508 70.87817383 C91.32064941 71.331521 90.61859375 71.78486816 89.89526367 72.25195312 C86.44210397 74.48416566 83.00890532 76.73982432 79.60473633 79.04614258 C78.96810059 79.47145264 78.33146484 79.8967627 77.67553711 80.33496094 C76.48070948 81.13399597 75.29240082 81.94289895 74.11206055 82.76318359 C70.25061751 85.32673644 70.25061751 85.32673644 67.51879883 85.27661133 C65.1344059 84.0520588 63.46152675 82.54364362 61.52270508 80.69067383 C43.83615618 64.55456915 21.67556569 54.75636293 -2.50610352 55.37036133 C-14.70791209 56.16264873 -25.56156361 59.57685628 -34.35229492 68.31567383 C-38.64831251 73.62547126 -40.18569548 78.73160637 -39.83276367 85.54223633 C-38.63169671 92.47522446 -35.27812761 98.56785761 -29.63745117 102.83129883 C-11.48677612 114.62148092 9.32956265 119.73747461 29.97949219 125.45452881 C52.68624941 131.75027405 74.74290998 138.8264043 93.64770508 153.31567383 C94.39407227 153.87770508 95.14043945 154.43973633 95.90942383 155.01879883 C104.97163194 162.35402425 111.74754433 172.37992899 115.64770508 183.31567383 C115.96610352 184.20641602 116.28450195 185.0971582 116.61254883 186.01489258 C122.81932794 207.43829145 119.27030527 231.41542859 108.70629883 250.73364258 C95.13843051 274.62284918 73.40157732 288.3931073 47.42797852 295.71899414 C35.53164787 298.85484699 23.70231054 299.69369022 11.46020508 299.62817383 C10.73337524 299.62601868 10.00654541 299.62386353 9.25769043 299.62164307 C-1.86200089 299.5688085 -12.53688987 299.04899486 -23.35229492 296.31567383 C-24.17020508 296.11699707 -24.98811523 295.91832031 -25.83081055 295.71362305 C-38.62636889 292.54323137 -50.53195069 288.13106305 -62.35229492 282.31567383 C-63.87209961 281.57704102 -63.87209961 281.57704102 -65.42260742 280.82348633 C-82.82388149 271.84382012 -103.08290149 257.11434481 -110.35229492 238.31567383 C-88.50713363 223.92848215 -88.50713363 223.92848215 -77.47729492 217.19067383 C-76.78458496 216.76681396 -76.091875 216.3429541 -75.37817383 215.90625 C-70.44026573 212.91280002 -65.41584619 210.09056456 -60.35229492 207.31567383 C-59.9158667 207.77828613 -59.47943848 208.24089844 -59.02978516 208.7175293 C-40.92822365 227.7531361 -21.38155773 242.51033753 5.84301758 243.66723633 C23.32007027 244.05451044 38.69398142 242.99438269 52.21020508 230.79223633 C56.65733621 226.22425924 57.78830451 221.37524267 58.02270508 215.19067383 C57.90624363 207.90212813 55.64809746 202.62602411 50.75708008 197.22973633 C34.55998257 182.90153469 11.08494165 178.06024007 -9.21313477 172.69555664 C-32.29521402 166.59047711 -56.62061964 159.80779568 -75.35229492 144.31567383 C-76.06385742 143.76524414 -76.77541992 143.21481445 -77.50854492 142.64770508 C-90.61987951 132.03256688 -97.01839799 116.8338483 -100.03979492 100.62817383 C-102.45117311 75.38566176 -96.65756935 52.36236486 -81.00463867 32.30786133 C-60.97640515 8.92530577 -29.77642786 -0.08421112 0 0 Z " fill="#1F1D1D" transform="translate(1407.352294921875,389.684326171875)"/>
<path d="M0 0 C0.93585938 0.69351562 1.87171875 1.38703125 2.8359375 2.1015625 C15.35468926 11.903635 32.80572506 26.41717517 38 42 C31.02726015 47.09063783 23.79304368 51.70986069 16.47900391 56.28930664 C12.33842911 58.8839747 8.21599321 61.49929584 4.1328125 64.18359375 C3.36332275 64.68858398 2.59383301 65.19357422 1.80102539 65.71386719 C0.34142318 66.67473086 -1.11527591 67.64002354 -2.56860352 68.61035156 C-3.22530029 69.04186523 -3.88199707 69.47337891 -4.55859375 69.91796875 C-5.12892334 70.29719482 -5.69925293 70.6764209 -6.28686523 71.06713867 C-8.1655572 72.09015164 -9.91231127 72.56738498 -12 73 C-12.72703125 71.87464844 -12.72703125 71.87464844 -13.46875 70.7265625 C-28.20736979 48.22182382 -46.47331641 31.75404529 -73.1875 25.625 C-97.47110069 22.11939749 -119.50204608 27.03500132 -139.375 41.375 C-159.77083581 57.50901937 -171.75519841 78.97848387 -176.64453125 104.34375 C-179.50041862 133.71859149 -173.65511344 160.57904276 -155.40234375 184.0859375 C-147.69950854 193.42953924 -139.36477371 199.953882 -129 206 C-128.13375 206.5053125 -127.2675 207.010625 -126.375 207.53125 C-109.15091986 216.82318797 -87.25302855 218.82119034 -68.359375 214.03125 C-43.36397062 206.35824214 -25.21195886 190.46033006 -12 168 C-8.91618211 168.62268987 -6.69330916 169.64193567 -4.05078125 171.3359375 C-3.29337646 171.81780518 -2.53597168 172.29967285 -1.75561523 172.79614258 C-0.94938721 173.31716553 -0.14315918 173.83818848 0.6875 174.375 C1.52531006 174.91084717 2.36312012 175.44669434 3.22631836 175.9987793 C5.82097382 177.66057981 8.41053539 179.33012604 11 181 C12.55965033 181.99908128 14.1195355 182.99779606 15.6796875 183.99609375 C23.23237682 188.84191912 30.71513408 193.75561249 38 199 C24.72928332 228.16471457 -8.06311791 249.9612574 -36.92285156 261.234375 C-72.84167987 274.47384909 -114.95331183 273.71235342 -149.95800781 257.9296875 C-163.81634477 251.42265261 -176.34463177 243.94360623 -188 234 C-188.86367187 233.27683594 -189.72734375 232.55367187 -190.6171875 231.80859375 C-195.55020835 227.56486706 -199.89699037 223.04524567 -204 218 C-204.77214844 217.06542969 -205.54429687 216.13085938 -206.33984375 215.16796875 C-212.94651652 206.99716749 -218.19002655 198.32857131 -223 189 C-223.48944092 188.05205566 -223.48944092 188.05205566 -223.98876953 187.08496094 C-228.74208902 177.73424839 -232.41740627 168.17035189 -235 158 C-235.19754883 157.22398437 -235.39509766 156.44796875 -235.59863281 155.6484375 C-245.09481655 116.48250785 -237.72358294 75.01207038 -216.98828125 40.66796875 C-208.42403647 27.56080434 -198.2875003 14.79761144 -186 5 C-184.50146484 3.78570312 -184.50146484 3.78570312 -182.97265625 2.546875 C-130.30890431 -38.78188883 -53.69231964 -39.89798061 0 0 Z " fill="#1F1D1D" transform="translate(243,419)"/>
<path d="M0 0 C5.00378077 4.35614197 9.71774794 9.02744126 14.4375 13.6875 C15.17226563 14.41259766 15.90703125 15.13769531 16.6640625 15.88476562 C26.5 25.78433673 26.5 25.78433673 26.5 30 C28.04494141 29.11248047 28.04494141 29.11248047 29.62109375 28.20703125 C39.62975891 22.59880932 49.31726064 18.57382774 60.5 16 C61.55058594 15.75507812 62.60117187 15.51015625 63.68359375 15.2578125 C90.6074551 10.14613011 115.67960726 16.29729796 138.46484375 30.89453125 C143.39666512 34.31570463 148.00051252 38.03114675 152.5 42 C153.12261719 42.53882812 153.74523437 43.07765625 154.38671875 43.6328125 C171.15043125 59.18516116 180.14023491 81.65030181 182.5 104 C182.55915294 105.6657469 182.58854052 107.33340656 182.5625 109 C182.55347656 109.763125 182.54445313 110.52625 182.53515625 111.3125 C182.52355469 111.869375 182.51195312 112.42625 182.5 113 C184.09714844 113.12955078 184.09714844 113.12955078 185.7265625 113.26171875 C206.19429236 115.14528128 224.09062125 122.90822133 237.8046875 138.64453125 C251.42780261 155.77663055 257.58196284 176.21764168 255.5 198 C252.90195951 215.36041623 243.96739513 229.98828451 231.5 242 C230.42492187 243.10408203 230.42492187 243.10408203 229.328125 244.23046875 C225.06484201 248.3735464 220.41970575 251.44102828 215.25 254.3125 C214.67862305 254.63831055 214.10724609 254.96412109 213.51855469 255.29980469 C203.7619145 260.43178675 192.52217143 261.48900811 181.6875 262.1875 C180.53185547 262.26645508 179.37621094 262.34541016 178.18554688 262.42675781 C170.29198051 262.92414293 162.40891976 263.2030312 154.5 263.25 C153.07917114 263.26389771 153.07917114 263.26389771 151.62963867 263.27807617 C142.24892688 263.23567466 133.34659096 262.45849806 125.5 257 C123.75991346 253.51982692 123.91535132 249.79693185 124.5 246 C127.9454356 241.37327219 131.53302241 239.63618628 137.05273438 238.45263672 C141.47084799 237.87252463 145.76987295 237.93476837 150.21875 238.0078125 C152.14061956 238.0253469 154.06249492 238.04225341 155.984375 238.05859375 C158.98128784 238.08934383 161.97790092 238.12465538 164.97460938 238.17138672 C185.17638124 238.4692591 201.82137534 237.06391099 217.2109375 222.48046875 C223.79033629 215.35091545 227.71878844 207.22584696 230.5 198 C230.79003906 197.07380859 230.79003906 197.07380859 231.0859375 196.12890625 C233.79507855 182.19983198 230.01979488 169.6727725 222.5 158 C214.12141122 146.47944043 202.53907164 140.29850358 188.7421875 137.42578125 C183.6474412 136.75671216 178.5331128 136.64442465 173.40039062 136.48242188 C165.28258294 136.14176961 165.28258294 136.14176961 161.5 134 C158.56844765 129.60267147 158.38564016 125.66010165 158.2890625 120.46484375 C158.26070312 119.40716797 158.23234375 118.34949219 158.203125 117.25976562 C158.15168836 115.07242239 158.10723463 112.884902 158.0703125 110.69726562 C157.76222908 100.07480595 155.77464377 90.3792034 150.8125 80.9375 C150.46437256 80.26195068 150.11624512 79.58640137 149.75756836 78.89038086 C140.12319869 60.65938902 126.14985705 47.66386457 106.5 41 C88.39429698 35.56173697 66.48117471 36.07814472 49.5 45 C44.51018445 48.07420035 39.72187257 51.41780897 34.94921875 54.81640625 C27.36239946 60.10805332 27.36239946 60.10805332 22.5 60 C14.98889369 57.29600173 11.90569435 51.18049339 8.125 44.625 C2.98734959 35.9235827 -2.65345067 29.39938541 -10.5 23 C-11.37527344 22.27554688 -12.25054688 21.55109375 -13.15234375 20.8046875 C-32.80425966 5.24142523 -58.23363996 -1.07640209 -83.10546875 1.4609375 C-108.26524329 5.45639076 -131.53827248 17.6744966 -146.9375 38.4375 C-160.87096724 59.0866474 -167.85243403 84.25573427 -164.18066406 109.16650391 C-163.59032956 112.14835559 -162.85266011 115.09016757 -162.1171875 118.0390625 C-161.19601947 122.45833696 -161.4382522 125.61144244 -162.5 130 C-165.61585831 134.3399455 -169.42517821 135.64008193 -174.5625 136.53125 C-178.27468647 136.97317696 -181.88631389 137.14403509 -185.61767578 137.23876953 C-199.34664534 137.63266548 -209.67436086 140.13765474 -220.5 149 C-221.19867187 149.55042969 -221.89734375 150.10085937 -222.6171875 150.66796875 C-229.84849448 157.0410856 -236.37008133 168.28269947 -237.5 178 C-238.33345263 193.67532055 -236.47587054 208.07913647 -226.2734375 220.76953125 C-213.89797619 233.87180537 -199.01376761 237.54710259 -181.50119066 238.05835176 C-175.96229401 238.15429004 -170.42284812 238.14373658 -164.88330078 238.1418457 C-163.02921975 238.14488311 -161.17513946 238.14840616 -159.32106018 238.15237427 C-155.35157313 238.16021472 -151.38209486 238.1653895 -147.41260147 238.16866493 C-141.13424217 238.17460973 -134.8559385 238.19117914 -128.5776062 238.21000671 C-126.42299846 238.21634237 -124.26839068 238.22266801 -122.11378288 238.22898388 C-121.03551664 238.23214969 -119.9572504 238.2353155 -118.84630942 238.23857725 C-104.24520528 238.28058299 -89.64412942 238.31366814 -75.04296875 238.32592773 C-65.16981413 238.33430227 -55.29679986 238.35675998 -45.42371547 238.3952834 C-40.2056292 238.41504399 -34.98775271 238.42744807 -29.76962662 238.42244911 C-24.8692573 238.4178104 -19.96928716 238.43156546 -15.06899834 238.45946121 C-13.27190778 238.46638273 -11.47477604 238.46648924 -9.67768669 238.45926094 C-7.22329807 238.45038551 -4.77022988 238.46604311 -2.31594849 238.48774719 C-1.60622174 238.47930466 -0.896495 238.47086212 -0.16526139 238.46216375 C4.82461179 238.54369059 7.6626646 239.86277044 11.5 243 C13.97753594 246.71630392 14.15136747 249.69283259 13.5 254 C11.69686453 257.74497367 10.51587587 259.51515015 6.75 261.3125 C-2.33624072 263.23458938 -11.34252032 263.14865226 -20.58520508 263.14526367 C-22.21743343 263.14825957 -23.84966108 263.15166308 -25.48188782 263.15544128 C-29.90457734 263.16425259 -34.32724748 263.1666185 -38.74994493 263.16725707 C-41.52617163 263.16797046 -44.3023935 263.17011047 -47.078619 263.17275429 C-56.80314823 263.18200596 -66.52766379 263.18609036 -76.25219727 263.18530273 C-85.24842595 263.18470553 -94.24459397 263.19518715 -103.24080735 263.2110464 C-111.01033135 263.22424374 -118.77983586 263.22948142 -126.54937094 263.22884732 C-131.16843687 263.22859541 -135.78744913 263.23127182 -140.40650368 263.24202538 C-173.34813694 263.31300864 -173.34813694 263.31300864 -189.72143555 262.1730957 C-190.75732472 262.10389766 -191.7932139 262.03469961 -192.86049366 261.96340466 C-214.66524726 260.18272786 -232.12976654 250.22747993 -246.37109375 233.71875 C-258.66874383 218.01386109 -264.21836633 200.84982813 -262.5 181 C-259.44606336 160.67299769 -249.17226594 139.29804957 -232.390625 126.84375 C-220.55456517 119.29426319 -208.75256108 114.43095753 -194.63671875 113.43359375 C-193.48260498 113.35036865 -192.32849121 113.26714355 -191.1394043 113.18139648 C-190.26840088 113.12153564 -189.39739746 113.0616748 -188.5 113 C-188.51047363 112.10394043 -188.52094727 111.20788086 -188.53173828 110.28466797 C-188.56627839 106.88880731 -188.59111758 103.49313923 -188.60986328 100.09716797 C-188.6197839 98.64075738 -188.63332468 97.18436593 -188.65087891 95.72802734 C-189.04341704 62.2699243 -177.39902858 35.32497541 -154.5 11 C-153.96117187 10.39671875 -153.42234375 9.7934375 -152.8671875 9.171875 C-114.74195154 -31.82712246 -43.09748715 -33.70862459 0 0 Z " fill="#F86817" transform="translate(768.5,23)"/>
<path d="M0 0 C48.51 0 97.02 0 147 0 C147 96.69 147 193.38 147 293 C126.87 293 106.74 293 86 293 C86 213.47 86 133.94 86 52 C57.62 52 29.24 52 0 52 C0 34.84 0 17.68 0 0 Z " fill="#1F1D1D" transform="translate(784,393)"/>
<path d="M0 0 C48.18 0 96.36 0 146 0 C146 96.69 146 193.38 146 293 C125.87 293 105.74 293 85 293 C85 213.47 85 133.94 85 52 C56.95 52 28.9 52 0 52 C0 34.84 0 17.68 0 0 Z " fill="#1F1D1D" transform="translate(532,393)"/>
<path d="M0 0 C136.62 0 273.24 0 414 0 C414 5.94 414 11.88 414 18 C277.38 18 140.76 18 0 18 C0 12.06 0 6.12 0 0 Z " fill="#1F1D1D" transform="translate(1113,767)"/>
<path d="M0 0 C136.62 0 273.24 0 414 0 C414 5.94 414 11.88 414 18 C277.38 18 140.76 18 0 18 C0 12.06 0 6.12 0 0 Z " fill="#1F1D1D" transform="translate(0,767)"/>
<path d="M0 0 C25.74 0 51.48 0 78 0 C78 17.16 78 34.32 78 52 C60.51 52 43.02 52 25 52 C21.74041687 45.52274266 18.48160663 39.04519662 15.23017883 32.56385803 C13.71592008 29.54591309 12.20024551 26.52869842 10.68115234 23.51318359 C8.93994142 20.05492549 7.20384038 16.59414462 5.46875 13.1328125 C4.92190552 12.04944611 4.37506104 10.96607971 3.81164551 9.84988403 C3.31112671 8.8489975 2.81060791 7.84811096 2.29492188 6.81689453 C1.6287384 5.49118942 1.6287384 5.49118942 0.94909668 4.13870239 C0 2 0 2 0 0 Z " fill="#1F1D1D" transform="translate(939,393)"/>
<path d="M0 0 C25.74 0 51.48 0 78 0 C78 17.16 78 34.32 78 52 C60.84 52 43.68 52 26 52 C20.04426794 40.68410908 14.11229404 29.39031164 8.40966797 17.94970703 C7.34257501 15.80998171 6.27102974 13.67252159 5.19921875 11.53515625 C4.51536737 10.16679539 3.83176298 8.79831106 3.1484375 7.4296875 C2.82982758 6.79449188 2.51121765 6.15929626 2.18295288 5.50485229 C0 1.11505868 0 1.11505868 0 0 Z " fill="#1F1D1D" transform="translate(686,393)"/>
<path d="M0 0 C6.81184701 5.50715857 11.73892802 11.49921713 13.75 20.1875 C14.80403496 30.78162685 14.24856452 39.93430865 7.8671875 48.8046875 C2.20496439 55.64400358 -5.25120558 61.65269664 -14.25 63.1875 C-27.67105987 64.18270571 -37.95888091 62.8984429 -48.6875 54 C-55.25111415 47.70019671 -59.29230561 39.89354297 -59.54321289 30.74267578 C-59.65141253 18.86262884 -57.21141769 11.27059227 -48.828125 2.45703125 C-34.90369191 -9.80068939 -15.02393219 -10.51393378 0 0 Z M-43.25 11.1875 C-47.9173692 17.90990489 -50.26486301 25.37861743 -48.83984375 33.53515625 C-46.96067244 40.09537704 -43.64677635 45.82324979 -37.98828125 49.76171875 C-30.53546345 53.84497372 -23.41528649 55.2419386 -15.125 53.125 C-7.96764712 50.60812866 -2.97317845 47.11064835 0.6875 40.375 C4.02199286 32.8130484 4.57748514 26.4906299 1.89453125 18.61328125 C-1.06445686 12.34184229 -6.15957965 7.41915161 -12.25 4.1875 C-23.30821827 0.38487158 -35.0234743 2.50394509 -43.25 11.1875 Z " fill="#F86817" transform="translate(902.25,746.8125)"/>
<path d="M0 0 C6.81184701 5.50715857 11.73892802 11.49921713 13.75 20.1875 C14.80403496 30.78162685 14.24856452 39.93430865 7.8671875 48.8046875 C2.20496439 55.64400358 -5.25120558 61.65269664 -14.25 63.1875 C-27.67105987 64.18270571 -37.95888091 62.8984429 -48.6875 54 C-55.25111415 47.70019671 -59.29230561 39.89354297 -59.54321289 30.74267578 C-59.65141253 18.86262884 -57.21141769 11.27059227 -48.828125 2.45703125 C-34.90369191 -9.80068939 -15.02393219 -10.51393378 0 0 Z M-43.25 11.1875 C-47.9173692 17.90990489 -50.26486301 25.37861743 -48.83984375 33.53515625 C-46.96067244 40.09537704 -43.64677635 45.82324979 -37.98828125 49.76171875 C-30.53546345 53.84497372 -23.41528649 55.2419386 -15.125 53.125 C-7.96764712 50.60812866 -2.97317845 47.11064835 0.6875 40.375 C4.02199286 32.8130484 4.57748514 26.4906299 1.89453125 18.61328125 C-1.06445686 12.34184229 -6.15957965 7.41915161 -12.25 4.1875 C-23.30821827 0.38487158 -35.0234743 2.50394509 -43.25 11.1875 Z " fill="#F86817" transform="translate(775.25,746.8125)"/>
<path d="M0 0 C9 0 9 0 11.75 2.01953125 C12.86375 3.40205078 12.86375 3.40205078 14 4.8125 C14.83917969 5.82441406 15.67835938 6.83632813 16.54296875 7.87890625 C17.35378906 8.90886719 18.16460938 9.93882812 19 11 C20.43634486 12.75094823 21.87382248 14.50096791 23.3125 16.25 C24.40498047 17.60351562 24.40498047 17.60351562 25.51953125 18.984375 C28.44968089 22.54669866 31.4675451 26.02478396 34.5 29.5 C39.20570806 34.89369709 43.80173371 40.35131697 48.29296875 45.92578125 C49.98296875 48.04740394 49.98296875 48.04740394 52 50 C52.33 33.5 52.66 17 53 0 C56.3 0 59.6 0 63 0 C63 22.44 63 44.88 63 68 C53 68 53 68 50.44140625 66.05078125 C49.82136719 65.14714844 49.20132813 64.24351562 48.5625 63.3125 C47.82902344 62.30574219 47.09554687 61.29898438 46.33984375 60.26171875 C45.9619873 59.72595215 45.58413086 59.19018555 45.19482422 58.63818359 C43.15483892 55.84122786 40.8828541 53.24665258 38.625 50.625 C37.69201493 49.52663029 36.7597285 48.42766677 35.828125 47.328125 C34.88553041 46.21865336 33.94282178 45.10927859 33 44 C31.12386361 41.7926285 29.24862498 39.58450373 27.375 37.375 C26.92278076 36.84173096 26.47056152 36.30846191 26.00463867 35.7590332 C22.20507498 31.26664421 18.47981625 26.71738607 14.77734375 22.14453125 C13.02744291 19.96529769 13.02744291 19.96529769 11 18 C10.67 34.5 10.34 51 10 68 C6.7 68 3.4 68 0 68 C0 45.56 0 23.12 0 0 Z " fill="#F86817" transform="translate(641,742)"/>
<path d="M0 0 C1 1 1 1 1.09765625 3.50390625 C1.08605469 4.51324219 1.07445312 5.52257812 1.0625 6.5625 C1.05347656 7.57441406 1.04445313 8.58632813 1.03515625 9.62890625 C1.02355469 10.41136719 1.01195312 11.19382812 1 12 C-5 10 -5 10 -7.015625 9.234375 C-15.76827798 6.02296995 -25.09781965 4.57852143 -34 8 C-40.94805913 11.37151722 -45.41578295 15.65113277 -48 23 C-50.04181233 31.84359967 -48.59812137 39.0541697 -43.9375 46.75 C-39.46025231 52.49691494 -32.68343668 55.05009539 -25.625 55.9375 C-19.56811168 56.2667729 -13.92754907 55.18550981 -8 54 C-8 49.71 -8 45.42 -8 41 C-12.29 41 -16.58 41 -21 41 C-21 38.03 -21 35.06 -21 32 C-13.41 32 -5.82 32 2 32 C2 41.57 2 51.14 2 61 C-11.47877122 65.90137135 -25.91325247 69.26833545 -39.67578125 63.26171875 C-48.60575488 58.41401878 -55.78317372 51.69546728 -59.3046875 42.00390625 C-61.29528924 33.40405941 -61.33019876 23.35326852 -57.44140625 15.3046875 C-44.84648487 -4.83353367 -21.02875972 -8.9968405 0 0 Z " fill="#F86817" transform="translate(983,744)"/>
<path d="M0 0 C2.64 0 5.28 0 8 0 C14.24173674 12.10807087 19.82543149 24.44499806 25.25 36.9375 C26.04647808 38.76384503 26.84335142 40.59001773 27.640625 42.41601562 C28.76434875 44.98995516 29.88756785 47.56409778 31.00762939 50.13963318 C31.50900421 51.29242516 31.50900421 51.29242516 32.02050781 52.46850586 C32.34329712 53.21204315 32.66608643 53.95558044 32.99865723 54.72164917 C33.70197898 56.32191408 34.41716277 57.91699267 35.14099121 59.50808716 C35.69140076 60.71946854 35.69140076 60.71946854 36.25292969 61.95532227 C36.58766296 62.68364761 36.92239624 63.41197296 37.26727295 64.16236877 C38 66 38 66 38 68 C34.37 68 30.74 68 27 68 C25.66216663 65.04362715 24.32956861 62.08508686 23 59.125 C22.6184375 58.28324219 22.236875 57.44148437 21.84375 56.57421875 C21.30234375 55.36572266 21.30234375 55.36572266 20.75 54.1328125 C20.41484375 53.38918457 20.0796875 52.64555664 19.734375 51.87939453 C19 50 19 50 19 48 C9.43 48.33 -0.14 48.66 -10 49 C-12.64 55.27 -15.28 61.54 -18 68 C-21.63 68 -25.26 68 -29 68 C-27.0044246 61.75124033 -24.71555188 55.77578921 -22.05078125 49.78515625 C-21.67447067 48.93054306 -21.2981601 48.07592987 -20.91044617 47.19541931 C-19.71489473 44.48276668 -18.5137912 41.77261489 -17.3125 39.0625 C-16.52632837 37.28075967 -15.74051851 35.49885968 -14.95507812 33.71679688 C-9.99330956 22.46756683 -4.99843793 11.23297489 0 0 Z M3 17 C1.49709189 20.47791766 -0.00183816 23.95753548 -1.5 27.4375 C-1.92925781 28.43072266 -2.35851563 29.42394531 -2.80078125 30.44726562 C-3.40986328 31.86362305 -3.40986328 31.86362305 -4.03125 33.30859375 C-4.59682617 34.62041626 -4.59682617 34.62041626 -5.17382812 35.95874023 C-6.06252872 37.78747369 -6.06252872 37.78747369 -6 39 C0.6 39 7.2 39 14 39 C12.09788915 33.29366744 10.34492182 28.28372385 7.8125 22.9375 C7.28269531 21.81214844 6.75289062 20.68679688 6.20703125 19.52734375 C5.80871094 18.69332031 5.41039062 17.85929688 5 17 C4.34 17 3.68 17 3 17 Z " fill="#F86817" transform="translate(1042,742)"/>
<path d="M0 0 C13.53 0 27.06 0 41 0 C41 2.97 41 5.94 41 9 C30.77 9 20.54 9 10 9 C10 15.6 10 22.2 10 29 C19.9 29 29.8 29 40 29 C40 31.97 40 34.94 40 38 C30.1 38 20.2 38 10 38 C10 44.93 10 51.86 10 59 C20.56 59 31.12 59 42 59 C42 61.97 42 64.94 42 68 C28.14 68 14.28 68 0 68 C0 45.56 0 23.12 0 0 Z " fill="#F96918" transform="translate(517,742)"/>
<path d="M0 0 C1 1 1 1 1.09765625 3.50390625 C1.08605469 4.51324219 1.07445312 5.52257812 1.0625 6.5625 C1.05347656 7.57441406 1.04445313 8.58632813 1.03515625 9.62890625 C1.02355469 10.41136719 1.01195312 11.19382812 1 12 C-5 10 -5 10 -7.015625 9.234375 C-15.76827798 6.02296995 -25.09781965 4.57852143 -34 8 C-40.95032591 11.37261716 -45.41171571 15.6511214 -48 23 C-49.74208607 30.44741795 -49.13177206 37.02413124 -46 44 C-41.91691303 50.55768513 -35.7526817 53.85231538 -28.36328125 55.63671875 C-18.23138439 57.01229015 -8.5188017 54.48989443 0 49 C0.66 49 1.32 49 2 49 C2 52.96 2 56.92 2 61 C-10.62576538 66.21418039 -23.79494778 68.75065426 -37.125 64.375 C-46.3800402 60.33566393 -53.98485053 53.72655326 -58.375 44.5625 C-61.37507926 36.30597934 -61.40917905 25.94202542 -58.5625 17.625 C-53.55494555 7.26093261 -45.54567927 1.13585974 -35 -3 C-23.6979972 -6.23364449 -10.6652651 -4.49348733 0 0 Z " fill="#F86817" transform="translate(629,744)"/>
<path d="M0 0 C19.8 0 39.6 0 60 0 C60 2.97 60 5.94 60 9 C51.75 9 43.5 9 35 9 C35 28.47 35 47.94 35 68 C31.7 68 28.4 68 25 68 C25 48.53 25 29.06 25 9 C16.75 9 8.5 9 0 9 C0 6.03 0 3.06 0 0 Z " fill="#F96918" transform="translate(450,742)"/>
<path d="M0 0 C3.3 0 6.6 0 10 0 C10 19.47 10 38.94 10 59 C20.56 59 31.12 59 42 59 C42 61.97 42 64.94 42 68 C28.14 68 14.28 68 0 68 C0 45.56 0 23.12 0 0 Z " fill="#F96918" transform="translate(799,742)"/>
<path d="M0 0 C3.3 0 6.6 0 10 0 C10 22.44 10 44.88 10 68 C6.7 68 3.4 68 0 68 C0 45.56 0 23.12 0 0 Z " fill="#F96918" transform="translate(997,742)"/>
<path d="M0 0 C4.69994029 1.71728588 7.20959499 3.86606666 10 8 C11.56840852 12.70522555 11.54895539 16.52648816 9.8125 21.1875 C7.47953993 24.80761046 4.84455245 27.07772378 1 29 C-4.41270498 29.5529679 -8.60637234 29.51490212 -13 26 C-16.17724676 23.17578066 -17.77930057 21.26641337 -18.203125 16.9140625 C-18.30198005 12.08664079 -18.20622918 8.86958695 -15 5 C-10.01790803 0.62548022 -6.65398122 -0.68277792 0 0 Z " fill="#F76817" transform="translate(842,259)"/>
</svg>
