<?xml version="1.0" encoding="UTF-8"?>
<svg version="1.1" xmlns="http://www.w3.org/2000/svg" width="1024" height="1024">
<path d="M0 0 C1.96759781 -0.01058945 1.96759781 -0.01058945 3.97494507 -0.02139282 C8.18512534 -0.04091313 12.39524746 -0.04608488 16.60546875 -0.046875 C17.32335697 -0.04716957 18.04124519 -0.04746414 18.7808876 -0.04776764 C40.25678594 -0.0491914 61.4879996 0.15412304 82.79296875 3.203125 C83.50598145 3.30258423 84.21899414 3.40204346 84.95361328 3.5045166 C140.89528888 11.31432122 196.39282181 26.69836034 246.58203125 53.05273438 C249.23476706 54.43300062 251.9044125 55.77805522 254.57421875 57.125 C268.42999413 64.16098543 281.74831925 71.75970054 294.79296875 80.203125 C295.39915039 80.59338867 296.00533203 80.98365234 296.62988281 81.38574219 C315.01581855 93.26706457 332.64033321 106.50283646 349.18945312 120.82617188 C350.85203206 122.25384319 352.5311862 123.6597684 354.21484375 125.0625 C362.34848145 131.87337401 369.91006347 139.11195829 377.32177734 146.69921875 C380.58769852 150.03776412 383.90923207 153.31860318 387.24609375 156.5859375 C393.80529778 163.03424542 400.08342496 169.46192678 405.77734375 176.6953125 C407.72864268 179.1230914 409.78445136 181.37277503 411.91796875 183.640625 C418.47887351 190.85304818 424.13806462 198.79337747 429.90722656 206.64111328 C431.65940787 209.02166619 433.42413105 211.39236479 435.19140625 213.76171875 C448.19413509 231.3244798 459.15585642 250.14030001 469.79296875 269.203125 C470.16228516 269.85909668 470.53160156 270.51506836 470.91210938 271.19091797 C507.98959369 337.281711 529.7230091 418.52449414 529.99609375 494.41015625 C530.0066832 496.37775406 530.0066832 496.37775406 530.01748657 498.38510132 C530.03700688 502.59528159 530.04217863 506.80540371 530.04296875 511.015625 C530.04326332 511.73351322 530.04355789 512.45140144 530.04386139 513.19104385 C530.04528515 534.66694219 529.84197071 555.89815585 526.79296875 577.203125 C526.69350952 577.9161377 526.59405029 578.62915039 526.49157715 579.36376953 C518.68177253 635.30544513 503.29773341 690.80297806 476.94335938 740.9921875 C475.56309313 743.64492331 474.21803853 746.31456875 472.87109375 748.984375 C465.83510832 762.84015038 458.23639321 776.1584755 449.79296875 789.203125 C449.20757324 790.11239746 449.20757324 790.11239746 448.61035156 791.04003906 C436.72902918 809.4259748 423.49325729 827.05048946 409.16992188 843.59960938 C407.74225056 845.26218831 406.33632535 846.94134245 404.93359375 848.625 C398.12271974 856.7586377 390.88413546 864.32021972 383.296875 871.73193359 C379.95832963 874.99785477 376.67749057 878.31938832 373.41015625 881.65625 C366.96184833 888.21545403 360.53416697 894.49358121 353.30078125 900.1875 C350.87300235 902.13879893 348.62331872 904.19460761 346.35546875 906.328125 C339.14304557 912.88902976 331.20271628 918.54822087 323.35498047 924.31738281 C320.97442756 926.06956412 318.60372896 927.8342873 316.234375 929.6015625 C298.67161395 942.60429134 279.85579374 953.56601267 260.79296875 964.203125 C260.13699707 964.57244141 259.48102539 964.94175781 258.80517578 965.32226562 C192.71438275 1002.39974994 111.47159961 1024.13316535 35.5859375 1024.40625 C33.61833969 1024.41683945 33.61833969 1024.41683945 31.61099243 1024.42764282 C27.40081216 1024.44716313 23.19069004 1024.45233488 18.98046875 1024.453125 C18.26258053 1024.45341957 17.54469231 1024.45371414 16.8050499 1024.45401764 C-4.67084844 1024.4554414 -25.9020621 1024.25212696 -47.20703125 1021.203125 C-47.92004395 1021.10366577 -48.63305664 1021.00420654 -49.36767578 1020.9017334 C-105.30935138 1013.09192878 -160.80688431 997.70788966 -210.99609375 971.35351562 C-213.64882956 969.97324938 -216.318475 968.62819478 -218.98828125 967.28125 C-232.84405663 960.24526457 -246.16238175 952.64654946 -259.20703125 944.203125 C-259.81321289 943.81286133 -260.41939453 943.42259766 -261.04394531 943.02050781 C-279.42988105 931.13918543 -297.05439571 917.90341354 -313.60351562 903.58007812 C-315.26609456 902.15240681 -316.9452487 900.7464816 -318.62890625 899.34375 C-326.76254395 892.53287599 -334.32412597 885.29429171 -341.73583984 877.70703125 C-345.00176102 874.36848588 -348.32329457 871.08764682 -351.66015625 867.8203125 C-358.21936028 861.37200458 -364.49748746 854.94432322 -370.19140625 847.7109375 C-372.14270518 845.2831586 -374.19851386 843.03347497 -376.33203125 840.765625 C-382.89293601 833.55320182 -388.55212712 825.61287253 -394.32128906 817.76513672 C-396.07347037 815.38458381 -397.83819355 813.01388521 -399.60546875 810.64453125 C-412.60819759 793.0817702 -423.56991892 774.26594999 -434.20703125 755.203125 C-434.57634766 754.54715332 -434.94566406 753.89118164 -435.32617188 753.21533203 C-472.40365619 687.124539 -494.1370716 605.88175586 -494.41015625 529.99609375 C-494.41721588 528.68436188 -494.42427551 527.37263 -494.43154907 526.02114868 C-494.45106938 521.81096841 -494.45624113 517.60084629 -494.45703125 513.390625 C-494.45732582 512.67273678 -494.45762039 511.95484856 -494.45792389 511.21520615 C-494.45934765 489.73930781 -494.25603321 468.50809415 -491.20703125 447.203125 C-491.10757202 446.4901123 -491.00811279 445.77709961 -490.90563965 445.04248047 C-483.09583503 389.10080487 -467.71179591 333.60327194 -441.35742188 283.4140625 C-439.97715563 280.76132669 -438.63210103 278.09168125 -437.28515625 275.421875 C-430.24917082 261.56609962 -422.65045571 248.2477745 -414.20703125 235.203125 C-413.81676758 234.59694336 -413.42650391 233.99076172 -413.02441406 233.36621094 C-401.14309168 214.9802752 -387.90731979 197.35576054 -373.58398438 180.80664062 C-372.15631306 179.14406169 -370.75038785 177.46490755 -369.34765625 175.78125 C-362.53678224 167.6476123 -355.29819796 160.08603028 -347.7109375 152.67431641 C-344.37239213 149.40839523 -341.09155307 146.08686168 -337.82421875 142.75 C-331.37591083 136.19079597 -324.94822947 129.91266879 -317.71484375 124.21875 C-315.28706485 122.26745107 -313.03738122 120.21164239 -310.76953125 118.078125 C-303.55710807 111.51722024 -295.61677878 105.85802913 -287.76904297 100.08886719 C-285.38849006 98.33668588 -283.01779146 96.5719627 -280.6484375 94.8046875 C-263.08567645 81.80195866 -244.26985624 70.84023733 -225.20703125 60.203125 C-224.55105957 59.83380859 -223.89508789 59.46449219 -223.21923828 59.08398438 C-157.12844525 22.00650006 -75.88566211 0.27308465 0 0 Z " fill="#47A6F5" transform="translate(494.20703125,-0.203125)"/>
<path d="M0 0 C1.31917923 0.00090637 1.31917923 0.00090637 2.66500854 0.00183105 C25.05893496 0.04346253 46.71253252 1.74871581 68.6875 6.1875 C69.50476563 6.34524902 70.32203125 6.50299805 71.1640625 6.66552734 C97.92599759 11.92311435 124.37487131 22.00159717 148.6875 34.1875 C149.52619629 34.60209473 150.36489258 35.01668945 151.22900391 35.44384766 C177.97006596 48.73797565 201.65887415 66.10462028 223.6875 86.1875 C225.416387 87.72948029 227.14555194 89.27114901 228.875 90.8125 C235.62550688 96.89850386 241.78093308 103.28492375 247.6875 110.1875 C248.48929688 111.10015625 249.29109375 112.0128125 250.1171875 112.953125 C282.19003095 149.75511278 304.91346503 194.2020032 317.6875 241.1875 C317.90889648 241.98591309 318.13029297 242.78432617 318.35839844 243.60693359 C322.710208 259.54759284 324.83728077 275.79550302 326.6875 292.1875 C326.77485413 292.94963303 326.86220825 293.71176605 326.95220947 294.49699402 C327.58044855 300.2911024 327.85958623 306.01369177 327.890625 311.83984375 C327.89763931 312.72931198 327.90465363 313.61878021 327.91188049 314.53520203 C327.92930926 317.39852009 327.93573548 320.26163079 327.9375 323.125 C327.93851212 324.59788483 327.93851212 324.59788483 327.93954468 326.1005249 C327.92223571 341.98497982 327.26945252 357.48289137 324.6875 373.1875 C324.50525879 374.29738281 324.32301758 375.40726563 324.13525391 376.55078125 C321.84961629 390.03928928 318.99508447 403.20336218 314.6875 416.1875 C314.38360352 417.12996582 314.07970703 418.07243164 313.76660156 419.04345703 C308.50106211 435.31157821 302.24023749 450.84804253 294.6875 466.1875 C294.26855469 467.03924805 293.84960938 467.89099609 293.41796875 468.76855469 C281.47774908 492.77218678 266.38510643 515.06360882 248.6875 535.1875 C248.05328125 535.92097656 247.4190625 536.65445313 246.765625 537.41015625 C245.08598964 539.34790071 243.38924878 541.26916501 241.6875 543.1875 C241.0378125 543.93 240.388125 544.6725 239.71875 545.4375 C235.33105176 550.3975067 230.79522168 555.18246188 226.125 559.875 C225.60728027 560.39731201 225.08956055 560.91962402 224.55615234 561.45776367 C220.43285169 565.56493247 216.10476266 569.40028994 211.6875 573.1875 C211.05835693 573.72866455 210.42921387 574.2698291 209.78100586 574.82739258 C194.16771143 588.158077 177.56722219 600.08337793 159.6875 610.1875 C158.47803711 610.87924316 158.47803711 610.87924316 157.24414062 611.58496094 C144.08724093 619.08019994 130.76528138 625.61080761 116.6875 631.1875 C115.90342773 631.50025879 115.11935547 631.81301758 114.31152344 632.13525391 C66.25462365 651.10508277 9.85510327 659.34374488 -41.3125 649.1875 C-42.32989258 648.99414062 -43.34728516 648.80078125 -44.39550781 648.6015625 C-62.45087351 645.1059315 -79.83864519 639.85812494 -97.3125 634.1875 C-100.83819753 633.05711273 -104.36507265 631.93046099 -107.89208984 630.80419922 C-110.02350016 630.12236267 -112.15409346 629.43796455 -114.28369141 628.75048828 C-148.7562978 617.63160512 -181.19262138 625.27665693 -214.75 636.1875 C-233.54827046 642.28928756 -252.81020108 646.99401937 -272.3125 650.1875 C-273.00279297 650.30464355 -273.69308594 650.42178711 -274.40429688 650.54248047 C-293.87957779 653.76442345 -317.12706424 655.31488977 -334.265625 643.8125 C-341.05692029 638.42093733 -345.66158673 631.68041098 -346.6953125 622.95703125 C-347.57222636 596.62038502 -328.32514631 574.63328297 -313.1706543 554.92016602 C-294.76278169 530.87106445 -284.54301384 508.87322217 -287.53222656 477.91162109 C-289.98844912 460.64729068 -298.64504936 443.89575135 -305.3359375 427.98046875 C-310.11847318 416.56194699 -314.70037032 405.52296327 -316.92089844 393.31005859 C-317.35156008 390.97578659 -317.83374587 388.65527323 -318.3203125 386.33203125 C-319.42413516 380.96791199 -320.3917511 375.58578481 -321.3125 370.1875 C-321.46638184 369.30868164 -321.62026367 368.42986328 -321.77880859 367.52441406 C-328.52175605 327.62074444 -324.6011709 285.12769335 -314.3125 246.1875 C-314.05629883 245.21490234 -313.80009766 244.24230469 -313.53613281 243.24023438 C-307.82014176 222.08317842 -299.59649041 201.40205395 -289.29833984 182.05322266 C-288.24549589 180.06069331 -287.22507773 178.05348264 -286.20703125 176.04296875 C-273.94591704 152.04930746 -257.90240627 129.3651491 -239.5625 109.62109375 C-237.67303949 107.57745851 -235.85908082 105.49945682 -234.0625 103.375 C-226.22512618 94.36481252 -217.52945978 85.77886585 -208.3125 78.1875 C-207.78527344 77.74647949 -207.25804687 77.30545898 -206.71484375 76.85107422 C-147.83043773 27.64825656 -76.95345485 -0.09792477 0 0 Z " fill="#47A7F6" transform="translate(521.3125,185.8125)"/>
<path d="M0 0 C1.31917923 0.00090637 1.31917923 0.00090637 2.66500854 0.00183105 C25.05893496 0.04346253 46.71253252 1.74871581 68.6875 6.1875 C69.50476563 6.34524902 70.32203125 6.50299805 71.1640625 6.66552734 C97.92599759 11.92311435 124.37487131 22.00159717 148.6875 34.1875 C149.52619629 34.60209473 150.36489258 35.01668945 151.22900391 35.44384766 C177.97006596 48.73797565 201.65887415 66.10462028 223.6875 86.1875 C225.416387 87.72948029 227.14555194 89.27114901 228.875 90.8125 C235.62550688 96.89850386 241.78093308 103.28492375 247.6875 110.1875 C248.48929688 111.10015625 249.29109375 112.0128125 250.1171875 112.953125 C282.19003095 149.75511278 304.91346503 194.2020032 317.6875 241.1875 C317.90889648 241.98591309 318.13029297 242.78432617 318.35839844 243.60693359 C322.710208 259.54759284 324.83728077 275.79550302 326.6875 292.1875 C326.77485413 292.94963303 326.86220825 293.71176605 326.95220947 294.49699402 C327.58044855 300.2911024 327.85958623 306.01369177 327.890625 311.83984375 C327.89763931 312.72931198 327.90465363 313.61878021 327.91188049 314.53520203 C327.92930926 317.39852009 327.93573548 320.26163079 327.9375 323.125 C327.93851212 324.59788483 327.93851212 324.59788483 327.93954468 326.1005249 C327.92223571 341.98497982 327.26945252 357.48289137 324.6875 373.1875 C324.50525879 374.29738281 324.32301758 375.40726563 324.13525391 376.55078125 C321.84961629 390.03928928 318.99508447 403.20336218 314.6875 416.1875 C314.38360352 417.12996582 314.07970703 418.07243164 313.76660156 419.04345703 C308.50106211 435.31157821 302.24023749 450.84804253 294.6875 466.1875 C294.26855469 467.03924805 293.84960938 467.89099609 293.41796875 468.76855469 C281.47774908 492.77218678 266.38510643 515.06360882 248.6875 535.1875 C248.05328125 535.92097656 247.4190625 536.65445313 246.765625 537.41015625 C245.08598964 539.34790071 243.38924878 541.26916501 241.6875 543.1875 C241.0378125 543.93 240.388125 544.6725 239.71875 545.4375 C235.33105176 550.3975067 230.79522168 555.18246188 226.125 559.875 C225.60728027 560.39731201 225.08956055 560.91962402 224.55615234 561.45776367 C220.43285169 565.56493247 216.10476266 569.40028994 211.6875 573.1875 C211.05835693 573.72866455 210.42921387 574.2698291 209.78100586 574.82739258 C194.16771143 588.158077 177.56722219 600.08337793 159.6875 610.1875 C158.47803711 610.87924316 158.47803711 610.87924316 157.24414062 611.58496094 C144.08724093 619.08019994 130.76528138 625.61080761 116.6875 631.1875 C115.90342773 631.50025879 115.11935547 631.81301758 114.31152344 632.13525391 C66.25462365 651.10508277 9.85510327 659.34374488 -41.3125 649.1875 C-42.32989258 648.99414062 -43.34728516 648.80078125 -44.39550781 648.6015625 C-62.45087351 645.1059315 -79.83864519 639.85812494 -97.3125 634.1875 C-100.83819753 633.05711273 -104.36507265 631.93046099 -107.89208984 630.80419922 C-110.02350016 630.12236267 -112.15409346 629.43796455 -114.28369141 628.75048828 C-148.7562978 617.63160512 -181.19262138 625.27665693 -214.75 636.1875 C-233.54827046 642.28928756 -252.81020108 646.99401937 -272.3125 650.1875 C-273.00279297 650.30464355 -273.69308594 650.42178711 -274.40429688 650.54248047 C-293.87957779 653.76442345 -317.12706424 655.31488977 -334.265625 643.8125 C-341.05692029 638.42093733 -345.66158673 631.68041098 -346.6953125 622.95703125 C-347.57222636 596.62038502 -328.32514631 574.63328297 -313.1706543 554.92016602 C-294.76278169 530.87106445 -284.54301384 508.87322217 -287.53222656 477.91162109 C-289.98844912 460.64729068 -298.64504936 443.89575135 -305.3359375 427.98046875 C-310.11847318 416.56194699 -314.70037032 405.52296327 -316.92089844 393.31005859 C-317.35156008 390.97578659 -317.83374587 388.65527323 -318.3203125 386.33203125 C-319.42413516 380.96791199 -320.3917511 375.58578481 -321.3125 370.1875 C-321.46638184 369.30868164 -321.62026367 368.42986328 -321.77880859 367.52441406 C-328.52175605 327.62074444 -324.6011709 285.12769335 -314.3125 246.1875 C-314.05629883 245.21490234 -313.80009766 244.24230469 -313.53613281 243.24023438 C-307.82014176 222.08317842 -299.59649041 201.40205395 -289.29833984 182.05322266 C-288.24549589 180.06069331 -287.22507773 178.05348264 -286.20703125 176.04296875 C-273.94591704 152.04930746 -257.90240627 129.3651491 -239.5625 109.62109375 C-237.67303949 107.57745851 -235.85908082 105.49945682 -234.0625 103.375 C-226.22512618 94.36481252 -217.52945978 85.77886585 -208.3125 78.1875 C-207.78527344 77.74647949 -207.25804687 77.30545898 -206.71484375 76.85107422 C-147.83043773 27.64825656 -76.95345485 -0.09792477 0 0 Z M-176.3125 83.1875 C-176.89483398 83.62562012 -177.47716797 84.06374023 -178.07714844 84.51513672 C-185.56236088 90.18519536 -192.66547798 96.14849185 -199.51171875 102.57421875 C-202.08966982 104.97958732 -204.72053201 107.30495317 -207.375 109.625 C-225.85669222 126.24075214 -241.9941443 147.47167396 -254.13476562 169.09375 C-254.97390444 170.58555234 -255.82261342 172.0719885 -256.67773438 173.5546875 C-291.70191994 234.34432867 -305.90698114 305.91622314 -294.3125 375.1875 C-294.17408691 376.01749512 -294.03567383 376.84749023 -293.89306641 377.70263672 C-293.16995049 381.90049001 -292.29899478 386.04422194 -291.3125 390.1875 C-291.05082031 391.33605469 -290.78914063 392.48460937 -290.51953125 393.66796875 C-286.52827154 409.92930199 -279.76978482 425.24491372 -273.125 440.5625 C-269.04877071 449.9639425 -265.01641432 459.28532727 -262.3125 469.1875 C-262.13283691 469.82437744 -261.95317383 470.46125488 -261.76806641 471.11743164 C-257.71969438 486.94926519 -258.80753919 505.84977899 -264.3125 521.1875 C-264.70179688 522.28835938 -265.09109375 523.38921875 -265.4921875 524.5234375 C-272.87060456 543.25326543 -284.77279178 560.31798709 -295.46630859 577.25927734 C-302.6553981 588.66180835 -309.76085735 600.1113103 -316.5625 611.75 C-317.02881836 612.54188721 -317.49513672 613.33377441 -317.97558594 614.1496582 C-318.61415527 615.25313599 -318.61415527 615.25313599 -319.265625 616.37890625 C-319.82491699 617.34098999 -319.82491699 617.34098999 -320.39550781 618.32250977 C-321.34829222 620.26029467 -321.8674398 622.07988879 -322.3125 624.1875 C-283.04570961 624.77715955 -246.29203182 619.00036581 -208.67480469 607.92553711 C-168.74536571 596.18102112 -168.74536571 596.18102112 -147.4375 595.875 C-146.58833008 595.85703369 -145.73916016 595.83906738 -144.86425781 595.82055664 C-128.87039537 595.84302835 -114.53862146 600.48259764 -99.75 606.0625 C-96.43841581 607.29509316 -93.12401301 608.5199512 -89.80859375 609.7421875 C-88.60606461 610.18677811 -88.60606461 610.18677811 -87.37924194 610.64035034 C-74.30440928 615.43661561 -60.99693551 619.54275249 -47.3125 622.1875 C-46.53197266 622.33993164 -45.75144531 622.49236328 -44.94726562 622.64941406 C-17.26853642 627.73079853 14.54123984 627.73767147 42.18457031 622.63623047 C44.85351815 622.15773592 47.52695548 621.76373162 50.2109375 621.37890625 C99.0143228 614.08870463 149.30943681 592.29230121 187.6875 561.1875 C188.6053125 560.46175781 189.523125 559.73601563 190.46875 558.98828125 C206.9182769 545.82393285 222.82904498 530.89474427 235.6875 514.1875 C236.7025962 512.90062437 237.71826379 511.61419933 238.734375 510.328125 C266.35877208 475.09338489 285.21750463 434.70103776 295.6875 391.1875 C295.88037598 390.41196777 296.07325195 389.63643555 296.27197266 388.83740234 C304.15327464 356.54948778 305.92026133 319.0131237 300.6875 286.1875 C300.41635164 284.32166034 300.14554229 282.45577139 299.875 280.58984375 C289.30990387 210.44602566 253.30847376 143.04106224 198.6875 97.1875 C197.93364014 96.539021 197.93364014 96.539021 197.16455078 95.87744141 C179.96135728 81.11695244 160.86659397 68.50328952 140.6875 58.1875 C139.89375977 57.77838379 139.10001953 57.36926758 138.28222656 56.94775391 C113.80059955 44.45761713 87.5284909 35.91894081 60.6875 30.1875 C60.03410645 30.04570312 59.38071289 29.90390625 58.70751953 29.7578125 C-21.66592402 12.72290119 -111.12699398 34.06355238 -176.3125 83.1875 Z " fill="#FCFDFD" transform="translate(521.3125,185.8125)"/>
<path d="M0 0 C1.11503906 0.48597656 2.23007812 0.97195313 3.37890625 1.47265625 C15.25957543 7.03349098 24.34610936 15.09780312 33.5625 24.25 C34.74223389 25.42127441 34.74223389 25.42127441 35.94580078 26.61621094 C45 35.78656535 45 35.78656535 45 40 C45.72703125 39.62488281 46.4540625 39.24976563 47.203125 38.86328125 C71.61614667 26.4376792 96.91750387 19.92703996 124 28 C149.90846883 36.65412955 171.63964738 53.25547905 184 78 C186.35273449 83.21693301 188.24331677 88.55725942 190 94 C190.26683594 94.80695313 190.53367187 95.61390625 190.80859375 96.4453125 C192.81204376 103.71300013 192.1649647 111.53076481 192 119 C192.58265625 118.96519531 193.1653125 118.93039062 193.765625 118.89453125 C200.92868625 118.65801508 207.16698383 119.90733193 214 122 C214.83402344 122.25523437 215.66804688 122.51046875 216.52734375 122.7734375 C234.5126575 129.12805403 247.34569018 143.54601921 255.609375 160.25390625 C262.13330887 175.27814219 263.92210292 193.26868155 259 209.0625 C250.98916575 229.24622205 237.95105855 245.10755827 217.75 253.9375 C203.3903803 259.41410463 188.46612849 259.23245643 173.29296875 259.29516602 C171.34400201 259.30674371 169.39506837 259.32728556 167.44628906 259.35668945 C164.59679122 259.39952285 161.74821784 259.41554715 158.8984375 259.42578125 C158.03882416 259.44328934 157.17921082 259.46079742 156.29354858 259.47883606 C150.33847933 259.45771106 144.99047622 258.43674405 140 255 C137.66364518 251.3244254 137.46929601 248.32144674 138 244 C141.57479691 238.92609471 146.18037233 237.38328369 152 236 C155.49325096 235.65461832 158.93486242 235.69375743 162.44140625 235.77734375 C163.89207741 235.79082603 163.89207741 235.79082603 165.37205505 235.80458069 C168.4359187 235.83436776 171.49896334 235.8841266 174.5625 235.9375 C177.6295489 235.98553201 180.69638461 236.02885582 183.76365662 236.05970764 C185.66374566 236.07926577 187.5637685 236.10866211 189.46351624 236.14964294 C202.78396298 236.29999076 214.94032226 231.18654598 224.875 222.328125 C234.33278898 212.4481133 239.49306597 198.80174545 239.42724609 185.26635742 C239.04037243 172.33857542 232.53047628 162.23494505 224 153 C213.82341509 143.98390285 199.94799484 140.17283703 186.60546875 139.875 C185.84387451 139.85211914 185.08228027 139.82923828 184.29760742 139.80566406 C182.79428124 139.76924303 181.29000365 139.75970989 179.78637695 139.78027344 C176.04631756 139.69848547 174.30455669 139.28280264 171.5390625 136.71484375 C168.92021447 131.86954369 169.40028849 126.17049786 169.375 120.8125 C169.23853406 109.45171009 168.58864588 99.03493027 163.5625 88.6875 C163.21687012 87.96892822 162.87124023 87.25035645 162.51513672 86.51000977 C153.86006408 69.29670712 140.71734872 57.4346173 122.59375 50.7421875 C105.82252621 45.70377363 84.8544509 44.9384148 69 53 C64.16229079 55.70114126 59.51374201 58.65645892 54.90820312 61.73291016 C52.84858889 63.10054039 50.77669937 64.44527056 48.69140625 65.7734375 C47.72569702 66.390979 47.72569702 66.390979 46.74047852 67.02099609 C44.2148247 68.44165422 42.8193865 68.74194381 40 68 C35.14774159 64.47766859 32.52106359 61.03166436 29.6875 55.8125 C25.82134553 49.08832755 21.61380777 43.41111141 16 38 C15.5364209 37.55172852 15.0728418 37.10345703 14.59521484 36.64160156 C3.01229134 25.63953263 -10.47467796 18.78666391 -26 15 C-27.33611328 14.66355469 -27.33611328 14.66355469 -28.69921875 14.3203125 C-52.74011824 9.31322074 -75.83540268 13.9080761 -96.24609375 27.09765625 C-116.49982141 41.609755 -128.70565698 60.57854517 -134 85 C-135.80472976 96.77823632 -136.40215458 109.22505928 -132.6796875 120.640625 C-131.26297822 125.55839745 -131.29289728 130.08666323 -133.0625 134.875 C-137.21171086 139.42574739 -143.38602367 140.75771807 -149.35253906 141.15771484 C-150.14885742 141.17527832 -150.94517578 141.1928418 -151.765625 141.2109375 C-152.65636719 141.23929688 -153.54710937 141.26765625 -154.46484375 141.296875 C-156.30579764 141.34851466 -158.14697042 141.39291382 -159.98828125 141.4296875 C-172.31641949 141.85540738 -183.72635115 146.64253364 -192.26953125 155.75390625 C-201.76975329 168.08489423 -205.28172081 179.43178137 -204 195 C-200.88627121 209.70193594 -194.41416601 221.01622555 -181.82421875 229.4609375 C-173.0847579 234.22352059 -163.19763806 236.15839595 -153.33985901 236.12457275 C-152.19436448 236.12668798 -152.19436448 236.12668798 -151.02572864 236.12884593 C-148.47099122 236.13249114 -145.91630958 236.12916578 -143.36157227 236.12597656 C-141.52822832 236.12737173 -139.6948847 236.1292713 -137.86154175 236.13163757 C-133.9153931 236.136131 -129.96925485 236.13799058 -126.02310371 236.13809967 C-119.78311148 236.13924052 -113.54317834 236.15208185 -107.3032074 236.16766357 C-105.72321586 236.17152285 -105.72321586 236.17152285 -104.1113053 236.1754601 C-101.95761422 236.18072647 -99.80392318 236.18601195 -97.6502322 236.19131613 C-83.12447817 236.22642731 -68.59879805 236.25297529 -54.07299805 236.25048828 C-44.27202381 236.24890044 -34.47125142 236.26491555 -24.67034191 236.30119491 C-19.48452139 236.31966478 -14.29903796 236.32898847 -9.1131916 236.31671906 C-4.23664927 236.30529266 0.63928897 236.31696191 5.51575089 236.34635353 C7.30477493 236.35299992 9.09385417 236.35111734 10.88285637 236.34005547 C13.32691914 236.32619741 15.76893839 236.34306007 18.21287537 236.36749268 C18.91959505 236.3561373 19.62631473 236.34478192 20.35445017 236.33308244 C25.92820086 236.44132242 28.21556029 238.2013623 32 242 C33.60802295 245.21604589 33.46193202 248.5120785 33 252 C31.08034244 255.67934365 29.73744798 256.74331421 25.81982422 258.10693359 C19.13194384 259.63598458 12.20763658 259.36149303 5.3828125 259.4140625 C3.80224231 259.43303671 2.22168092 259.45275583 0.64112854 259.47315979 C-3.63793821 259.52553852 -7.91703257 259.56516585 -12.19626236 259.60149765 C-14.88212307 259.6250625 -17.56793366 259.65179532 -20.25375366 259.67959595 C-33.5023261 259.81625876 -46.75099068 259.91691951 -60 260 C-61.41935978 260.0090826 -61.41935978 260.0090826 -62.86739349 260.01834869 C-75.80678424 260.10036201 -88.7460271 260.15376686 -101.68564606 260.1807785 C-104.277325 260.18741 -106.86896883 260.19749535 -109.46063232 260.20855713 C-125.50534812 260.27233733 -141.52373663 260.25032794 -157.54296875 259.23828125 C-158.62508133 259.17730759 -159.70719391 259.11633392 -160.82209778 259.05351257 C-180.69975307 257.57000934 -197.96592487 247.95358263 -211 233 C-223.46284522 217.45645147 -228.59852175 201.78902972 -227 182 C-224.64888949 163.65880996 -214.63132839 144.69526287 -200.47265625 132.84375 C-187.07358737 122.85265915 -173.54217948 118.73508965 -157 119 C-157.0314209 117.44442383 -157.0314209 117.44442383 -157.06347656 115.85742188 C-157.13708135 111.92869442 -157.18222681 108.00002463 -157.21972656 104.07080078 C-157.23957276 102.38547446 -157.26665893 100.70021439 -157.30175781 99.01513672 C-157.92160261 68.44220386 -145.28420231 42.9666008 -124.375 21 C-90.92698604 -11.57989757 -42.11587702 -18.52361331 0 0 Z " fill="#FBFCFD" transform="translate(506,356)"/>
<path d="M0 0 C4.32900774 2.23432658 6.95545792 4.83728955 9.06640625 9.3125 C9.75829274 13.69182699 9.36680358 17.33620869 8.06640625 21.5625 C5.32811778 25.32764664 2.32557554 27.46239874 -1.93359375 29.3125 C-6.89525925 30.09592087 -10.23050181 29.24353845 -14.35546875 26.55859375 C-17.86779376 23.78524802 -19.61207784 21.1633133 -20.3828125 16.7265625 C-20.69311654 11.69274138 -20.4570064 8.22129758 -17.18359375 4.25 C-12.430254 -0.65938373 -6.5619842 -2.33314994 0 0 Z " fill="#FAFCFD" transform="translate(597.93359375,589.6875)"/>
</svg>
